<mxfile host="app.diagrams.net" modified="2021-12-14T08:00:25.233Z" agent="5.0 (Windows NT 10.0; Win64; x64) AppleWebKit/537.36 (KHTML, like Gecko) Chrome/94.0.4606.85 YaBrowser/21.11.2.773 Yowser/2.5 Safari/537.36" etag="oQcTcOikkpd3UoY0K3Ez" version="15.9.4" type="github">
  <diagram name="Page-1" id="e7e014a7-5840-1c2e-5031-d8a46d1fe8dd">
    <mxGraphModel dx="868" dy="453" grid="1" gridSize="10" guides="1" tooltips="1" connect="1" arrows="1" fold="1" page="1" pageScale="1" pageWidth="1169" pageHeight="826" background="none" math="0" shadow="0">
      <root>
        <mxCell id="0" />
        <mxCell id="1" parent="0" />
        <mxCell id="hjKGUoCsUy8046te_LSd-41" value="метод TDD" style="shape=hexagon;perimeter=hexagonPerimeter2;whiteSpace=wrap;html=1;fixedSize=1;size=30;rotation=0;" parent="1" vertex="1">
          <mxGeometry x="460" y="120" width="140" height="120" as="geometry" />
        </mxCell>
        <mxCell id="hjKGUoCsUy8046te_LSd-42" value="" style="group" parent="1" vertex="1" connectable="0">
          <mxGeometry x="690" y="150" width="110" height="60" as="geometry" />
        </mxCell>
        <mxCell id="hjKGUoCsUy8046te_LSd-43" value="&lt;font color=&quot;#202124&quot; face=&quot;arial, sans-serif&quot;&gt;&lt;span style=&quot;font-size: 16px ; background-color: rgb(255 , 255 , 255)&quot;&gt;Требования&lt;/span&gt;&lt;/font&gt;" style="rounded=1;whiteSpace=wrap;html=1;arcSize=50;" parent="hjKGUoCsUy8046te_LSd-42" vertex="1">
          <mxGeometry x="-30" width="130" height="60" as="geometry" />
        </mxCell>
        <mxCell id="hjKGUoCsUy8046te_LSd-44" value="" style="endArrow=none;html=1;rounded=0;curved=1;entryX=1;entryY=0.5;entryDx=0;entryDy=0;" parent="hjKGUoCsUy8046te_LSd-42" target="hjKGUoCsUy8046te_LSd-43" edge="1">
          <mxGeometry width="50" height="50" relative="1" as="geometry">
            <mxPoint x="110" y="60" as="sourcePoint" />
            <mxPoint x="210" y="-10" as="targetPoint" />
          </mxGeometry>
        </mxCell>
        <mxCell id="hjKGUoCsUy8046te_LSd-45" value="" style="endArrow=none;html=1;rounded=0;curved=1;entryX=1;entryY=0.5;entryDx=0;entryDy=0;" parent="hjKGUoCsUy8046te_LSd-42" target="hjKGUoCsUy8046te_LSd-43" edge="1">
          <mxGeometry width="50" height="50" relative="1" as="geometry">
            <mxPoint x="110" as="sourcePoint" />
            <mxPoint x="110" y="40" as="targetPoint" />
          </mxGeometry>
        </mxCell>
        <mxCell id="hjKGUoCsUy8046te_LSd-46" value="" style="group" parent="1" vertex="1" connectable="0">
          <mxGeometry x="690" y="240" width="110" height="60" as="geometry" />
        </mxCell>
        <mxCell id="hjKGUoCsUy8046te_LSd-47" value="&lt;font color=&quot;#202124&quot; face=&quot;arial, sans-serif&quot;&gt;&lt;span style=&quot;font-size: 16px ; background-color: rgb(255 , 255 , 255)&quot;&gt;Работа&amp;nbsp;&lt;/span&gt;&lt;/font&gt;" style="rounded=1;whiteSpace=wrap;html=1;arcSize=50;" parent="hjKGUoCsUy8046te_LSd-46" vertex="1">
          <mxGeometry x="-30" width="130" height="60" as="geometry" />
        </mxCell>
        <mxCell id="hjKGUoCsUy8046te_LSd-48" value="" style="endArrow=none;html=1;rounded=0;curved=1;entryX=1;entryY=0.5;entryDx=0;entryDy=0;" parent="hjKGUoCsUy8046te_LSd-46" target="hjKGUoCsUy8046te_LSd-47" edge="1">
          <mxGeometry width="50" height="50" relative="1" as="geometry">
            <mxPoint x="110" y="60" as="sourcePoint" />
            <mxPoint x="210" y="-10" as="targetPoint" />
          </mxGeometry>
        </mxCell>
        <mxCell id="hjKGUoCsUy8046te_LSd-49" value="" style="endArrow=none;html=1;rounded=0;curved=1;entryX=1;entryY=0.5;entryDx=0;entryDy=0;" parent="hjKGUoCsUy8046te_LSd-46" target="hjKGUoCsUy8046te_LSd-47" edge="1">
          <mxGeometry width="50" height="50" relative="1" as="geometry">
            <mxPoint x="110" as="sourcePoint" />
            <mxPoint x="110" y="40" as="targetPoint" />
          </mxGeometry>
        </mxCell>
        <mxCell id="hjKGUoCsUy8046te_LSd-58" style="edgeStyle=orthogonalEdgeStyle;rounded=0;orthogonalLoop=1;jettySize=auto;html=1;exitX=0;exitY=0.5;exitDx=0;exitDy=0;entryX=1;entryY=0.5;entryDx=0;entryDy=0;" parent="1" source="hjKGUoCsUy8046te_LSd-43" target="hjKGUoCsUy8046te_LSd-41" edge="1">
          <mxGeometry relative="1" as="geometry" />
        </mxCell>
        <mxCell id="hjKGUoCsUy8046te_LSd-59" style="edgeStyle=orthogonalEdgeStyle;rounded=0;orthogonalLoop=1;jettySize=auto;html=1;entryX=1;entryY=0.5;entryDx=0;entryDy=0;" parent="1" target="hjKGUoCsUy8046te_LSd-41" edge="1">
          <mxGeometry relative="1" as="geometry">
            <mxPoint x="660" y="180" as="sourcePoint" />
          </mxGeometry>
        </mxCell>
        <mxCell id="hjKGUoCsUy8046te_LSd-65" value="" style="group" parent="1" vertex="1" connectable="0">
          <mxGeometry x="700" y="367" width="110" height="60" as="geometry" />
        </mxCell>
        <mxCell id="hjKGUoCsUy8046te_LSd-66" value="&lt;font color=&quot;#202124&quot; face=&quot;arial, sans-serif&quot;&gt;&lt;span style=&quot;font-size: 16px ; background-color: rgb(255 , 255 , 255)&quot;&gt;Команда&lt;/span&gt;&lt;/font&gt;" style="rounded=1;whiteSpace=wrap;html=1;arcSize=50;" parent="hjKGUoCsUy8046te_LSd-65" vertex="1">
          <mxGeometry x="-30" width="130" height="60" as="geometry" />
        </mxCell>
        <mxCell id="hjKGUoCsUy8046te_LSd-67" value="" style="endArrow=none;html=1;rounded=0;curved=1;entryX=1;entryY=0.5;entryDx=0;entryDy=0;" parent="hjKGUoCsUy8046te_LSd-65" target="hjKGUoCsUy8046te_LSd-66" edge="1">
          <mxGeometry width="50" height="50" relative="1" as="geometry">
            <mxPoint x="110" y="60" as="sourcePoint" />
            <mxPoint x="210" y="-9.999999999999998" as="targetPoint" />
          </mxGeometry>
        </mxCell>
        <mxCell id="hjKGUoCsUy8046te_LSd-68" value="" style="endArrow=none;html=1;rounded=0;curved=1;entryX=1;entryY=0.5;entryDx=0;entryDy=0;" parent="hjKGUoCsUy8046te_LSd-65" target="hjKGUoCsUy8046te_LSd-66" edge="1">
          <mxGeometry width="50" height="50" relative="1" as="geometry">
            <mxPoint x="110" as="sourcePoint" />
            <mxPoint x="110" y="39.99999999999999" as="targetPoint" />
          </mxGeometry>
        </mxCell>
        <mxCell id="O2x_0k-06AcNhNK3iaKl-23" style="edgeStyle=orthogonalEdgeStyle;rounded=0;orthogonalLoop=1;jettySize=auto;html=1;exitX=0.5;exitY=1;exitDx=0;exitDy=0;exitPerimeter=0;entryX=0.9;entryY=-0.025;entryDx=0;entryDy=0;entryPerimeter=0;" edge="1" parent="1" source="hjKGUoCsUy8046te_LSd-76" target="hjKGUoCsUy8046te_LSd-98">
          <mxGeometry relative="1" as="geometry" />
        </mxCell>
        <mxCell id="hjKGUoCsUy8046te_LSd-76" value="рефакторинг" style="shape=card;whiteSpace=wrap;html=1;size=20;" parent="1" vertex="1">
          <mxGeometry x="1055" y="140" width="80" height="60" as="geometry" />
        </mxCell>
        <mxCell id="O2x_0k-06AcNhNK3iaKl-19" style="edgeStyle=orthogonalEdgeStyle;rounded=0;orthogonalLoop=1;jettySize=auto;html=1;" edge="1" parent="1" source="hjKGUoCsUy8046te_LSd-98">
          <mxGeometry relative="1" as="geometry">
            <mxPoint x="960" y="270" as="targetPoint" />
          </mxGeometry>
        </mxCell>
        <mxCell id="hjKGUoCsUy8046te_LSd-98" value="Программный продукт" style="shape=card;whiteSpace=wrap;html=1;size=20;" parent="1" vertex="1">
          <mxGeometry x="1025" y="230" width="80" height="80" as="geometry" />
        </mxCell>
        <mxCell id="O2x_0k-06AcNhNK3iaKl-2" value="" style="endArrow=none;html=1;rounded=0;" edge="1" parent="1">
          <mxGeometry width="50" height="50" relative="1" as="geometry">
            <mxPoint x="640" y="530" as="sourcePoint" />
            <mxPoint x="640" y="180" as="targetPoint" />
          </mxGeometry>
        </mxCell>
        <mxCell id="O2x_0k-06AcNhNK3iaKl-4" style="edgeStyle=orthogonalEdgeStyle;rounded=0;orthogonalLoop=1;jettySize=auto;html=1;exitX=0;exitY=0.5;exitDx=0;exitDy=0;" edge="1" parent="1" source="hjKGUoCsUy8046te_LSd-47">
          <mxGeometry relative="1" as="geometry">
            <mxPoint x="640" y="270" as="targetPoint" />
          </mxGeometry>
        </mxCell>
        <mxCell id="O2x_0k-06AcNhNK3iaKl-6" value="" style="group" vertex="1" connectable="0" parent="1">
          <mxGeometry x="690" y="500" width="110" height="60" as="geometry" />
        </mxCell>
        <mxCell id="O2x_0k-06AcNhNK3iaKl-7" value="&lt;font color=&quot;#202124&quot; face=&quot;arial, sans-serif&quot;&gt;&lt;span style=&quot;font-size: 16px ; background-color: rgb(255 , 255 , 255)&quot;&gt;Программная система&lt;/span&gt;&lt;/font&gt;" style="rounded=1;whiteSpace=wrap;html=1;arcSize=50;" vertex="1" parent="O2x_0k-06AcNhNK3iaKl-6">
          <mxGeometry x="-30" width="130" height="60" as="geometry" />
        </mxCell>
        <mxCell id="O2x_0k-06AcNhNK3iaKl-8" value="" style="endArrow=none;html=1;rounded=0;curved=1;entryX=1;entryY=0.5;entryDx=0;entryDy=0;" edge="1" parent="O2x_0k-06AcNhNK3iaKl-6" target="O2x_0k-06AcNhNK3iaKl-7">
          <mxGeometry width="50" height="50" relative="1" as="geometry">
            <mxPoint x="110" y="60" as="sourcePoint" />
            <mxPoint x="210" y="-10" as="targetPoint" />
          </mxGeometry>
        </mxCell>
        <mxCell id="O2x_0k-06AcNhNK3iaKl-9" value="" style="endArrow=none;html=1;rounded=0;curved=1;entryX=1;entryY=0.5;entryDx=0;entryDy=0;" edge="1" parent="O2x_0k-06AcNhNK3iaKl-6" target="O2x_0k-06AcNhNK3iaKl-7">
          <mxGeometry width="50" height="50" relative="1" as="geometry">
            <mxPoint x="110" as="sourcePoint" />
            <mxPoint x="110" y="40" as="targetPoint" />
          </mxGeometry>
        </mxCell>
        <mxCell id="O2x_0k-06AcNhNK3iaKl-10" style="edgeStyle=orthogonalEdgeStyle;rounded=0;orthogonalLoop=1;jettySize=auto;html=1;exitX=0;exitY=0.5;exitDx=0;exitDy=0;" edge="1" parent="1" source="O2x_0k-06AcNhNK3iaKl-7">
          <mxGeometry relative="1" as="geometry">
            <mxPoint x="640" y="530" as="targetPoint" />
          </mxGeometry>
        </mxCell>
        <mxCell id="O2x_0k-06AcNhNK3iaKl-12" style="edgeStyle=orthogonalEdgeStyle;rounded=0;orthogonalLoop=1;jettySize=auto;html=1;exitX=0;exitY=0;exitDx=0;exitDy=40;exitPerimeter=0;entryX=1;entryY=0.5;entryDx=0;entryDy=0;" edge="1" parent="1" source="O2x_0k-06AcNhNK3iaKl-11" target="hjKGUoCsUy8046te_LSd-43">
          <mxGeometry relative="1" as="geometry" />
        </mxCell>
        <mxCell id="O2x_0k-06AcNhNK3iaKl-11" value="Набор функций&amp;nbsp;" style="shape=card;whiteSpace=wrap;html=1;size=20;" vertex="1" parent="1">
          <mxGeometry x="880" y="140" width="60" height="60" as="geometry" />
        </mxCell>
        <mxCell id="O2x_0k-06AcNhNK3iaKl-13" value="" style="group" vertex="1" connectable="0" parent="1">
          <mxGeometry x="940" y="337" width="90" height="50" as="geometry" />
        </mxCell>
        <mxCell id="O2x_0k-06AcNhNK3iaKl-14" value="&lt;font color=&quot;#202124&quot; face=&quot;arial, sans-serif&quot;&gt;&lt;span style=&quot;font-size: 16px ; background-color: rgb(255 , 255 , 255)&quot;&gt;Разработчики&lt;/span&gt;&lt;/font&gt;" style="rounded=1;whiteSpace=wrap;html=1;arcSize=50;" vertex="1" parent="O2x_0k-06AcNhNK3iaKl-13">
          <mxGeometry x="-24.545454545454547" width="106.36363636363636" height="50" as="geometry" />
        </mxCell>
        <mxCell id="O2x_0k-06AcNhNK3iaKl-15" value="" style="endArrow=none;html=1;rounded=0;curved=1;entryX=1;entryY=0.5;entryDx=0;entryDy=0;" edge="1" parent="O2x_0k-06AcNhNK3iaKl-13" target="O2x_0k-06AcNhNK3iaKl-14">
          <mxGeometry width="50" height="50" relative="1" as="geometry">
            <mxPoint x="90" y="50" as="sourcePoint" />
            <mxPoint x="171.8181818181818" y="-8.333333333333332" as="targetPoint" />
          </mxGeometry>
        </mxCell>
        <mxCell id="O2x_0k-06AcNhNK3iaKl-16" value="" style="endArrow=none;html=1;rounded=0;curved=1;entryX=1;entryY=0.5;entryDx=0;entryDy=0;" edge="1" parent="O2x_0k-06AcNhNK3iaKl-13" target="O2x_0k-06AcNhNK3iaKl-14">
          <mxGeometry width="50" height="50" relative="1" as="geometry">
            <mxPoint x="90" as="sourcePoint" />
            <mxPoint x="90" y="33.33333333333333" as="targetPoint" />
          </mxGeometry>
        </mxCell>
        <mxCell id="O2x_0k-06AcNhNK3iaKl-22" style="edgeStyle=orthogonalEdgeStyle;rounded=0;orthogonalLoop=1;jettySize=auto;html=1;" edge="1" parent="1" source="O2x_0k-06AcNhNK3iaKl-20" target="O2x_0k-06AcNhNK3iaKl-21">
          <mxGeometry relative="1" as="geometry" />
        </mxCell>
        <mxCell id="O2x_0k-06AcNhNK3iaKl-28" style="edgeStyle=orthogonalEdgeStyle;rounded=0;orthogonalLoop=1;jettySize=auto;html=1;exitX=0;exitY=0;exitDx=0;exitDy=40;exitPerimeter=0;entryX=1.038;entryY=0.625;entryDx=0;entryDy=0;entryPerimeter=0;" edge="1" parent="1" source="O2x_0k-06AcNhNK3iaKl-20" target="hjKGUoCsUy8046te_LSd-98">
          <mxGeometry relative="1" as="geometry" />
        </mxCell>
        <mxCell id="O2x_0k-06AcNhNK3iaKl-20" value="Тест" style="shape=card;whiteSpace=wrap;html=1;size=20;" vertex="1" parent="1">
          <mxGeometry x="1145" y="240" width="50" height="60" as="geometry" />
        </mxCell>
        <mxCell id="O2x_0k-06AcNhNK3iaKl-21" value="ошибка&amp;nbsp;" style="shape=card;whiteSpace=wrap;html=1;size=20;" vertex="1" parent="1">
          <mxGeometry x="1235" y="240" width="60" height="60" as="geometry" />
        </mxCell>
        <mxCell id="O2x_0k-06AcNhNK3iaKl-27" style="edgeStyle=orthogonalEdgeStyle;rounded=0;orthogonalLoop=1;jettySize=auto;html=1;" edge="1" parent="1" source="O2x_0k-06AcNhNK3iaKl-26">
          <mxGeometry relative="1" as="geometry">
            <mxPoint x="790" y="530" as="targetPoint" />
          </mxGeometry>
        </mxCell>
        <mxCell id="O2x_0k-06AcNhNK3iaKl-26" value="Тест" style="shape=card;whiteSpace=wrap;html=1;size=20;" vertex="1" parent="1">
          <mxGeometry x="910" y="500" width="50" height="60" as="geometry" />
        </mxCell>
        <mxCell id="O2x_0k-06AcNhNK3iaKl-30" value="" style="group" vertex="1" connectable="0" parent="1">
          <mxGeometry x="940" y="417" width="90" height="47" as="geometry" />
        </mxCell>
        <mxCell id="O2x_0k-06AcNhNK3iaKl-31" value="&lt;font color=&quot;#202124&quot; face=&quot;arial, sans-serif&quot;&gt;&lt;span style=&quot;font-size: 16px ; background-color: rgb(255 , 255 , 255)&quot;&gt;тестировщики&lt;/span&gt;&lt;/font&gt;" style="rounded=1;whiteSpace=wrap;html=1;arcSize=50;" vertex="1" parent="O2x_0k-06AcNhNK3iaKl-30">
          <mxGeometry x="-24.545454545454547" width="106.36363636363636" height="47" as="geometry" />
        </mxCell>
        <mxCell id="O2x_0k-06AcNhNK3iaKl-32" value="" style="endArrow=none;html=1;rounded=0;curved=1;entryX=1;entryY=0.5;entryDx=0;entryDy=0;" edge="1" parent="O2x_0k-06AcNhNK3iaKl-30" target="O2x_0k-06AcNhNK3iaKl-31">
          <mxGeometry width="50" height="50" relative="1" as="geometry">
            <mxPoint x="90.00000000000001" y="47" as="sourcePoint" />
            <mxPoint x="171.8181818181818" y="-7.833333333333332" as="targetPoint" />
          </mxGeometry>
        </mxCell>
        <mxCell id="O2x_0k-06AcNhNK3iaKl-33" value="" style="endArrow=none;html=1;rounded=0;curved=1;entryX=1;entryY=0.5;entryDx=0;entryDy=0;" edge="1" parent="O2x_0k-06AcNhNK3iaKl-30" target="O2x_0k-06AcNhNK3iaKl-31">
          <mxGeometry width="50" height="50" relative="1" as="geometry">
            <mxPoint x="90.00000000000001" as="sourcePoint" />
            <mxPoint x="90.00000000000001" y="31.33333333333333" as="targetPoint" />
          </mxGeometry>
        </mxCell>
        <mxCell id="O2x_0k-06AcNhNK3iaKl-35" value="" style="endArrow=none;html=1;rounded=0;" edge="1" parent="1">
          <mxGeometry width="50" height="50" relative="1" as="geometry">
            <mxPoint x="870" y="440" as="sourcePoint" />
            <mxPoint x="870.5" y="360" as="targetPoint" />
            <Array as="points">
              <mxPoint x="870.5" y="400" />
            </Array>
          </mxGeometry>
        </mxCell>
        <mxCell id="O2x_0k-06AcNhNK3iaKl-38" value="" style="endArrow=classic;html=1;rounded=0;" edge="1" parent="1">
          <mxGeometry width="50" height="50" relative="1" as="geometry">
            <mxPoint x="870" y="401" as="sourcePoint" />
            <mxPoint x="800" y="401.5" as="targetPoint" />
          </mxGeometry>
        </mxCell>
        <mxCell id="O2x_0k-06AcNhNK3iaKl-40" value="" style="endArrow=none;html=1;rounded=0;entryX=0;entryY=0.5;entryDx=0;entryDy=0;" edge="1" parent="1" target="O2x_0k-06AcNhNK3iaKl-14">
          <mxGeometry width="50" height="50" relative="1" as="geometry">
            <mxPoint x="870" y="361.5" as="sourcePoint" />
            <mxPoint x="910" y="361.5" as="targetPoint" />
          </mxGeometry>
        </mxCell>
        <mxCell id="O2x_0k-06AcNhNK3iaKl-41" value="" style="endArrow=none;html=1;rounded=0;entryX=0;entryY=0.5;entryDx=0;entryDy=0;" edge="1" parent="1" target="O2x_0k-06AcNhNK3iaKl-31">
          <mxGeometry width="50" height="50" relative="1" as="geometry">
            <mxPoint x="870" y="440" as="sourcePoint" />
            <mxPoint x="910" y="440" as="targetPoint" />
          </mxGeometry>
        </mxCell>
        <mxCell id="O2x_0k-06AcNhNK3iaKl-44" value="" style="verticalLabelPosition=bottom;verticalAlign=top;html=1;shape=mxgraph.basic.star" vertex="1" parent="1">
          <mxGeometry x="1130" y="320" width="90" height="77" as="geometry" />
        </mxCell>
        <mxCell id="O2x_0k-06AcNhNK3iaKl-47" style="edgeStyle=orthogonalEdgeStyle;rounded=0;orthogonalLoop=1;jettySize=auto;html=1;exitX=0;exitY=0.5;exitDx=0;exitDy=0;fontSize=10;fontColor=#000000;" edge="1" parent="1" source="O2x_0k-06AcNhNK3iaKl-45">
          <mxGeometry relative="1" as="geometry">
            <mxPoint x="1020" y="360" as="targetPoint" />
          </mxGeometry>
        </mxCell>
        <mxCell id="O2x_0k-06AcNhNK3iaKl-45" value="&lt;span&gt;&lt;font style=&quot;font-size: 10px&quot;&gt;Знание&lt;br&gt;&amp;nbsp;языков&lt;br&gt;&amp;nbsp;програм-я&lt;/font&gt;&lt;/span&gt;" style="text;html=1;strokeColor=none;fillColor=none;align=center;verticalAlign=middle;whiteSpace=wrap;rounded=0;" vertex="1" parent="1">
          <mxGeometry x="1142.5" y="320" width="65" height="80" as="geometry" />
        </mxCell>
        <mxCell id="O2x_0k-06AcNhNK3iaKl-57" style="edgeStyle=orthogonalEdgeStyle;rounded=0;orthogonalLoop=1;jettySize=auto;html=1;exitX=0.5;exitY=0;exitDx=0;exitDy=0;fontSize=10;fontColor=#000000;" edge="1" parent="1" source="O2x_0k-06AcNhNK3iaKl-48">
          <mxGeometry relative="1" as="geometry">
            <mxPoint x="790" y="270" as="targetPoint" />
          </mxGeometry>
        </mxCell>
        <mxCell id="O2x_0k-06AcNhNK3iaKl-48" value="Управление проектами" style="shape=offPageConnector;whiteSpace=wrap;html=1;direction=north;" vertex="1" parent="1">
          <mxGeometry x="830" y="243.5" width="130" height="53" as="geometry" />
        </mxCell>
        <mxCell id="O2x_0k-06AcNhNK3iaKl-51" style="edgeStyle=orthogonalEdgeStyle;rounded=0;orthogonalLoop=1;jettySize=auto;html=1;fontSize=10;fontColor=#000000;entryX=1;entryY=0.5;entryDx=0;entryDy=0;" edge="1" parent="1" source="O2x_0k-06AcNhNK3iaKl-49" target="O2x_0k-06AcNhNK3iaKl-31">
          <mxGeometry relative="1" as="geometry">
            <mxPoint x="1030" y="445.5" as="targetPoint" />
          </mxGeometry>
        </mxCell>
        <mxCell id="O2x_0k-06AcNhNK3iaKl-49" value="" style="verticalLabelPosition=bottom;verticalAlign=top;html=1;shape=mxgraph.basic.star" vertex="1" parent="1">
          <mxGeometry x="1130" y="402" width="90" height="77" as="geometry" />
        </mxCell>
        <mxCell id="O2x_0k-06AcNhNK3iaKl-53" value="Основы тестирования" style="text;html=1;strokeColor=none;fillColor=none;align=center;verticalAlign=middle;whiteSpace=wrap;rounded=0;fontSize=10;fontColor=#000000;" vertex="1" parent="1">
          <mxGeometry x="1145" y="430" width="60" height="30" as="geometry" />
        </mxCell>
        <mxCell id="O2x_0k-06AcNhNK3iaKl-56" style="edgeStyle=orthogonalEdgeStyle;rounded=0;orthogonalLoop=1;jettySize=auto;html=1;exitX=0;exitY=0.5;exitDx=0;exitDy=0;fontSize=10;fontColor=#000000;" edge="1" parent="1" source="hjKGUoCsUy8046te_LSd-66">
          <mxGeometry relative="1" as="geometry">
            <mxPoint x="640" y="397" as="targetPoint" />
          </mxGeometry>
        </mxCell>
      </root>
    </mxGraphModel>
  </diagram>
</mxfile>
